<svg xmlns="http://www.w3.org/2000/svg" zoomAndPan="magnify" viewBox="0 0 100 100" preserveAspectRatio="xMidYMid meet" version="1.0">
    <defs>
        <g />
        <clipPath id="id1">
            <path d="M 79.570312 179 L 174.820312 179 L 174.820312 204 L 79.570312 204 Z M 79.570312 179 " clip-rule="nonzero" />
        </clipPath>
        <clipPath id="id2">
            <path d="M 99 147.277344 L 174.820312 147.277344 L 174.820312 171 L 99 171 Z M 99 147.277344 " clip-rule="nonzero" />
        </clipPath>
        <clipPath id="id3">
            <path d="M 105 192 L 174.820312 192 L 174.820312 211.777344 L 105 211.777344 Z M 105 192 " clip-rule="nonzero" />
        </clipPath>
    </defs>
    <g clip-path="url(#id1)">
        <path fill="rgb(100%, 100%, 100%)" d="M 91.507812 203.175781 L 96.914062 203.175781 C 97.203125 203.175781 97.476562 203.121094 97.742188 203.011719 C 98.007812 202.902344 98.242188 202.746094 98.445312 202.546875 C 98.648438 202.34375 98.804688 202.113281 98.914062 201.847656 C 99.023438 201.585938 99.078125 201.3125 99.078125 201.027344 C 99.078125 200.742188 99.023438 200.464844 98.914062 200.203125 C 98.804688 199.941406 98.648438 199.707031 98.445312 199.503906 C 98.242188 199.304688 98.007812 199.148438 97.742188 199.039062 C 97.476562 198.929688 97.203125 198.875 96.914062 198.875 L 91.507812 198.875 C 91.011719 198.875 90.519531 198.828125 90.03125 198.730469 C 89.542969 198.632812 89.070312 198.492188 88.609375 198.304688 C 88.152344 198.113281 87.714844 197.882812 87.300781 197.609375 C 86.886719 197.332031 86.507812 197.019531 86.15625 196.671875 C 85.804688 196.324219 85.488281 195.941406 85.214844 195.53125 C 84.9375 195.121094 84.703125 194.6875 84.511719 194.230469 C 84.324219 193.773438 84.179688 193.304688 84.082031 192.820312 C 83.984375 192.335938 83.9375 191.84375 83.9375 191.351562 C 83.9375 190.855469 83.984375 190.367188 84.082031 189.882812 C 84.179688 189.398438 84.324219 188.925781 84.511719 188.472656 C 84.703125 188.015625 84.9375 187.582031 85.214844 187.171875 C 85.488281 186.757812 85.804688 186.378906 86.15625 186.03125 C 86.507812 185.679688 86.886719 185.367188 87.300781 185.09375 C 87.714844 184.820312 88.152344 184.585938 88.609375 184.398438 C 89.070312 184.210938 89.542969 184.066406 90.03125 183.96875 C 90.519531 183.875 91.011719 183.824219 91.507812 183.824219 L 172.617188 183.824219 C 172.902344 183.824219 173.179688 183.769531 173.445312 183.660156 C 173.710938 183.554688 173.941406 183.398438 174.144531 183.195312 C 174.347656 182.996094 174.503906 182.761719 174.613281 182.5 C 174.722656 182.234375 174.777344 181.960938 174.777344 181.675781 C 174.777344 181.390625 174.722656 181.117188 174.613281 180.851562 C 174.503906 180.589844 174.347656 180.355469 174.144531 180.15625 C 173.941406 179.953125 173.710938 179.796875 173.445312 179.6875 C 173.179688 179.582031 172.902344 179.527344 172.617188 179.527344 L 91.507812 179.527344 C 90.726562 179.527344 89.953125 179.601562 89.1875 179.753906 C 88.421875 179.90625 87.675781 180.128906 86.953125 180.425781 C 86.234375 180.722656 85.546875 181.085938 84.898438 181.519531 C 84.25 181.949219 83.648438 182.441406 83.09375 182.988281 C 82.542969 183.539062 82.050781 184.136719 81.617188 184.78125 C 81.183594 185.425781 80.816406 186.109375 80.515625 186.824219 C 80.21875 187.542969 79.992188 188.28125 79.839844 189.042969 C 79.6875 189.804688 79.613281 190.574219 79.613281 191.351562 C 79.613281 192.128906 79.6875 192.894531 79.839844 193.65625 C 79.992188 194.417969 80.21875 195.160156 80.515625 195.875 C 80.816406 196.59375 81.183594 197.273438 81.617188 197.921875 C 82.050781 198.566406 82.542969 199.164062 83.09375 199.710938 C 83.648438 200.261719 84.25 200.75 84.898438 201.183594 C 85.546875 201.613281 86.234375 201.976562 86.953125 202.277344 C 87.675781 202.574219 88.421875 202.796875 89.1875 202.949219 C 89.953125 203.101562 90.726562 203.175781 91.507812 203.175781 Z M 91.507812 203.175781 " fill-opacity="1" fill-rule="nonzero" />
    </g>
    <g clip-path="url(#id2)">
        <path fill="rgb(100%, 100%, 100%)" d="M 110.972656 170.925781 L 172.617188 170.925781 C 172.902344 170.925781 173.179688 170.871094 173.445312 170.761719 C 173.710938 170.652344 173.941406 170.496094 174.144531 170.296875 C 174.347656 170.09375 174.503906 169.863281 174.613281 169.597656 C 174.722656 169.335938 174.777344 169.0625 174.777344 168.777344 C 174.777344 168.492188 174.722656 168.214844 174.613281 167.953125 C 174.503906 167.691406 174.347656 167.457031 174.144531 167.253906 C 173.941406 167.054688 173.710938 166.898438 173.445312 166.789062 C 173.179688 166.679688 172.902344 166.625 172.617188 166.625 L 110.972656 166.625 C 110.476562 166.625 109.984375 166.578125 109.496094 166.480469 C 109.007812 166.382812 108.535156 166.242188 108.078125 166.054688 C 107.617188 165.863281 107.179688 165.632812 106.769531 165.359375 C 106.355469 165.082031 105.972656 164.769531 105.621094 164.421875 C 105.269531 164.074219 104.957031 163.691406 104.679688 163.28125 C 104.402344 162.871094 104.167969 162.4375 103.980469 161.980469 C 103.789062 161.523438 103.644531 161.054688 103.546875 160.570312 C 103.453125 160.085938 103.402344 159.59375 103.402344 159.101562 C 103.402344 158.605469 103.453125 158.117188 103.546875 157.632812 C 103.644531 157.148438 103.789062 156.675781 103.980469 156.222656 C 104.167969 155.765625 104.402344 155.332031 104.679688 154.921875 C 104.957031 154.507812 105.269531 154.128906 105.621094 153.78125 C 105.972656 153.429688 106.355469 153.117188 106.769531 152.84375 C 107.179688 152.570312 107.617188 152.335938 108.078125 152.148438 C 108.535156 151.960938 109.007812 151.816406 109.496094 151.71875 C 109.984375 151.625 110.476562 151.574219 110.972656 151.574219 L 116.378906 151.574219 C 116.667969 151.574219 116.945312 151.519531 117.207031 151.410156 C 117.472656 151.304688 117.707031 151.148438 117.910156 150.945312 C 118.113281 150.746094 118.269531 150.511719 118.378906 150.25 C 118.488281 149.984375 118.542969 149.710938 118.542969 149.425781 C 118.542969 149.140625 118.488281 148.867188 118.378906 148.601562 C 118.269531 148.339844 118.113281 148.105469 117.910156 147.90625 C 117.707031 147.703125 117.472656 147.546875 117.207031 147.4375 C 116.945312 147.332031 116.667969 147.277344 116.378906 147.277344 L 110.972656 147.277344 C 110.191406 147.277344 109.417969 147.351562 108.652344 147.503906 C 107.886719 147.65625 107.144531 147.878906 106.421875 148.175781 C 105.699219 148.472656 105.015625 148.835938 104.363281 149.269531 C 103.714844 149.699219 103.113281 150.191406 102.5625 150.738281 C 102.007812 151.289062 101.515625 151.886719 101.082031 152.53125 C 100.648438 153.175781 100.28125 153.859375 99.984375 154.574219 C 99.683594 155.292969 99.457031 156.03125 99.304688 156.792969 C 99.152344 157.554688 99.078125 158.324219 99.078125 159.101562 C 99.078125 159.878906 99.152344 160.644531 99.304688 161.40625 C 99.457031 162.167969 99.683594 162.910156 99.984375 163.625 C 100.28125 164.34375 100.648438 165.023438 101.082031 165.671875 C 101.515625 166.316406 102.007812 166.914062 102.5625 167.460938 C 103.113281 168.011719 103.714844 168.5 104.363281 168.933594 C 105.015625 169.363281 105.699219 169.726562 106.421875 170.027344 C 107.144531 170.324219 107.886719 170.546875 108.652344 170.699219 C 109.417969 170.851562 110.191406 170.925781 110.972656 170.925781 Z M 110.972656 170.925781 " fill-opacity="1" fill-rule="nonzero" />
    </g>
    <g clip-path="url(#id3)">
        <path fill="rgb(100%, 100%, 100%)" d="M 172.617188 192.425781 L 115.300781 192.425781 C 114.660156 192.425781 114.027344 192.488281 113.402344 192.613281 C 112.773438 192.734375 112.164062 192.917969 111.574219 193.164062 C 110.984375 193.40625 110.421875 193.703125 109.890625 194.054688 C 109.359375 194.410156 108.867188 194.808594 108.417969 195.257812 C 107.964844 195.707031 107.5625 196.199219 107.207031 196.726562 C 106.851562 197.253906 106.550781 197.8125 106.308594 198.398438 C 106.0625 198.984375 105.878906 199.589844 105.753906 200.214844 C 105.628906 200.835938 105.566406 201.464844 105.566406 202.101562 C 105.566406 202.734375 105.628906 203.363281 105.753906 203.988281 C 105.878906 204.609375 106.0625 205.214844 106.308594 205.804688 C 106.550781 206.390625 106.851562 206.949219 107.207031 207.476562 C 107.5625 208.003906 107.964844 208.492188 108.417969 208.941406 C 108.867188 209.390625 109.359375 209.792969 109.890625 210.144531 C 110.421875 210.5 110.984375 210.796875 111.574219 211.039062 C 112.164062 211.28125 112.773438 211.464844 113.402344 211.589844 C 114.027344 211.714844 114.660156 211.777344 115.300781 211.777344 L 118.542969 211.777344 C 118.832031 211.777344 119.105469 211.722656 119.371094 211.613281 C 119.636719 211.503906 119.871094 211.347656 120.074219 211.144531 C 120.277344 210.945312 120.433594 210.710938 120.542969 210.449219 C 120.652344 210.183594 120.707031 209.910156 120.707031 209.625 C 120.707031 209.339844 120.652344 209.066406 120.542969 208.804688 C 120.433594 208.539062 120.277344 208.308594 120.074219 208.105469 C 119.871094 207.902344 119.636719 207.75 119.371094 207.640625 C 119.105469 207.53125 118.832031 207.476562 118.542969 207.476562 L 115.300781 207.476562 C 114.945312 207.476562 114.59375 207.441406 114.246094 207.371094 C 113.894531 207.304688 113.558594 207.203125 113.230469 207.066406 C 112.902344 206.929688 112.589844 206.765625 112.296875 206.570312 C 112 206.375 111.726562 206.152344 111.476562 205.902344 C 111.226562 205.652344 111 205.378906 110.804688 205.085938 C 110.605469 204.792969 110.441406 204.484375 110.304688 204.15625 C 110.167969 203.832031 110.066406 203.496094 109.996094 203.148438 C 109.925781 202.804688 109.890625 202.453125 109.890625 202.101562 C 109.890625 201.746094 109.925781 201.398438 109.996094 201.050781 C 110.066406 200.707031 110.167969 200.371094 110.304688 200.042969 C 110.441406 199.71875 110.605469 199.40625 110.804688 199.113281 C 111 198.820312 111.226562 198.550781 111.476562 198.300781 C 111.726562 198.050781 112 197.828125 112.296875 197.632812 C 112.589844 197.433594 112.902344 197.269531 113.230469 197.136719 C 113.558594 197 113.894531 196.898438 114.246094 196.828125 C 114.59375 196.761719 114.945312 196.726562 115.300781 196.726562 L 172.617188 196.726562 C 172.902344 196.726562 173.179688 196.671875 173.445312 196.5625 C 173.710938 196.453125 173.941406 196.296875 174.144531 196.097656 C 174.347656 195.894531 174.503906 195.660156 174.613281 195.398438 C 174.722656 195.136719 174.777344 194.859375 174.777344 194.574219 C 174.777344 194.289062 174.722656 194.015625 174.613281 193.753906 C 174.503906 193.488281 174.347656 193.257812 174.144531 193.054688 C 173.941406 192.855469 173.710938 192.699219 173.445312 192.589844 C 173.179688 192.480469 172.902344 192.425781 172.617188 192.425781 Z M 172.617188 192.425781 " fill-opacity="1" fill-rule="nonzero" />
    </g>
    <g fill="rgb(98.81897%, 27.839661%, 27.839661%)" fill-opacity="1">
        <g transform="translate(177.16067, 197.912493)">
            <g>
                <path d="M 2.40625 0 L 2.40625 -41.703125 L 15.296875 -41.703125 C 16.773438 -41.703125 18.046875 -41.148438 19.109375 -40.046875 C 20.171875 -38.953125 20.703125 -37.601562 20.703125 -36 L 20.703125 -5.703125 C 20.703125 -4.097656 20.171875 -2.742188 19.109375 -1.640625 C 18.046875 -0.546875 16.773438 0 15.296875 0 Z M 14.09375 -6.296875 L 14.09375 -35.40625 L 9 -35.40625 L 9 -6.296875 Z M 14.09375 -6.296875 " />
            </g>
        </g>
    </g>
    <g fill="rgb(98.81897%, 27.839661%, 27.839661%)" fill-opacity="1">
        <g transform="translate(204.936132, 197.912493)">
            <g>
                <path d="M 2.40625 0 L 2.40625 -36 C 2.40625 -37.601562 2.929688 -38.953125 3.984375 -40.046875 C 5.046875 -41.148438 6.316406 -41.703125 7.796875 -41.703125 L 15.296875 -41.703125 C 16.773438 -41.703125 18.046875 -41.148438 19.109375 -40.046875 C 20.171875 -38.953125 20.703125 -37.601562 20.703125 -36 L 20.703125 0 L 14.09375 0 L 14.09375 -17.703125 L 9 -15 L 9 0 Z M 9 -22.375 L 14.09375 -25.078125 L 14.09375 -35.40625 L 9 -35.40625 Z M 9 -22.375 " />
            </g>
        </g>
    </g>
    <g fill="rgb(98.81897%, 27.839661%, 27.839661%)" fill-opacity="1">
        <g transform="translate(232.711593, 197.912493)">
            <g>
                <path d="M 2.40625 -36 C 2.40625 -37.632812 2.929688 -38.992188 3.984375 -40.078125 C 5.046875 -41.160156 6.316406 -41.703125 7.796875 -41.703125 L 15.296875 -41.703125 C 16.773438 -41.703125 18.046875 -41.148438 19.109375 -40.046875 C 20.171875 -38.953125 20.703125 -37.601562 20.703125 -36 L 20.703125 -34.203125 L 14.09375 -30.90625 L 14.09375 -35.40625 L 9 -35.40625 L 9 -24.296875 L 20.703125 -30.296875 L 20.703125 -5.703125 C 20.703125 -4.140625 20.171875 -2.796875 19.109375 -1.671875 C 18.046875 -0.554688 16.773438 0 15.296875 0 L 7.796875 0 C 6.316406 0 5.046875 -0.546875 3.984375 -1.640625 C 2.929688 -2.742188 2.40625 -4.097656 2.40625 -5.703125 L 2.40625 -9.59375 L 9 -12.90625 L 9 -6.296875 L 14.09375 -6.296875 L 14.09375 -19.5 L 2.40625 -13.5 Z M 2.40625 -36 " />
            </g>
        </g>
    </g>
    <g fill="rgb(98.81897%, 27.839661%, 27.839661%)" fill-opacity="1">
        <g transform="translate(260.487055, 197.912493)">
            <g>
                <path d="M 14.09375 -19.265625 L 9 -16.5625 L 9 0 L 2.40625 0 L 2.40625 -41.703125 L 9 -41.703125 L 9 -23.9375 L 14.09375 -26.640625 L 14.09375 -41.703125 L 20.703125 -41.703125 L 20.703125 0 L 14.09375 0 Z M 14.09375 -19.265625 " />
            </g>
        </g>
    </g>
    <g fill="rgb(100%, 100%, 100%)" fill-opacity="1">
        <g transform="translate(133.975394, 223.548831)">
            <g>
                <path d="M 6.765625 -13.09375 L 3.328125 -13.09375 L 3.328125 -8.9375 L 6.765625 -10.71875 L 6.765625 -7.984375 L 3.328125 -6.21875 L 3.328125 -2.328125 L 6.765625 -2.328125 L 6.765625 0 L 0.890625 0 L 0.890625 -13.3125 C 0.890625 -13.90625 1.082031 -14.40625 1.46875 -14.8125 C 1.863281 -15.21875 2.335938 -15.421875 2.890625 -15.421875 L 6.765625 -15.421875 Z M 6.765625 -13.09375 " />
            </g>
        </g>
    </g>
    <g fill="rgb(100%, 100%, 100%)" fill-opacity="1">
        <g transform="translate(146.425062, 223.548831)">
            <g>
                <path d="M 3.328125 0 L 0.890625 0 L 0.890625 -15.421875 L 3.328125 -15.421875 L 3.328125 -14.28125 C 3.421875 -14.476562 3.539062 -14.660156 3.6875 -14.828125 C 4.082031 -15.222656 4.554688 -15.421875 5.109375 -15.421875 L 5.65625 -15.421875 C 6.207031 -15.421875 6.675781 -15.21875 7.0625 -14.8125 C 7.457031 -14.40625 7.65625 -13.90625 7.65625 -13.3125 L 7.65625 0 L 5.21875 0 L 5.21875 -13.09375 L 3.328125 -13.09375 Z M 3.328125 0 " />
            </g>
        </g>
    </g>
    <g fill="rgb(100%, 100%, 100%)" fill-opacity="1">
        <g transform="translate(159.984119, 223.548831)">
            <g>
                <path d="M 2.765625 0 L 2.765625 -13.09375 L 0.328125 -13.09375 L 0.328125 -15.421875 L 7.65625 -15.421875 L 7.65625 -13.09375 L 5.21875 -13.09375 L 5.21875 0 Z M 2.765625 0 " />
            </g>
        </g>
    </g>
    <g fill="rgb(100%, 100%, 100%)" fill-opacity="1">
        <g transform="translate(172.988482, 223.548831)">
            <g>
                <path d="M 6.765625 -13.09375 L 3.328125 -13.09375 L 3.328125 -8.9375 L 6.765625 -10.71875 L 6.765625 -7.984375 L 3.328125 -6.21875 L 3.328125 -2.328125 L 6.765625 -2.328125 L 6.765625 0 L 0.890625 0 L 0.890625 -13.3125 C 0.890625 -13.90625 1.082031 -14.40625 1.46875 -14.8125 C 1.863281 -15.21875 2.335938 -15.421875 2.890625 -15.421875 L 6.765625 -15.421875 Z M 6.765625 -13.09375 " />
            </g>
        </g>
    </g>
    <g fill="rgb(100%, 100%, 100%)" fill-opacity="1">
        <g transform="translate(185.438149, 223.548831)">
            <g>
                <path d="M 6.4375 0 L 3.875 -5.765625 L 3.328125 -5.484375 L 3.328125 0 L 0.890625 0 L 0.890625 -15.421875 L 5.65625 -15.421875 C 6.207031 -15.421875 6.675781 -15.21875 7.0625 -14.8125 C 7.457031 -14.40625 7.65625 -13.90625 7.65625 -13.3125 L 7.65625 -7.703125 L 6.03125 -6.875 L 9.09375 0 Z M 5.21875 -9.203125 L 5.21875 -13.09375 L 3.328125 -13.09375 L 3.328125 -8.203125 Z M 5.21875 -9.203125 " />
            </g>
        </g>
    </g>
    <g fill="rgb(100%, 100%, 100%)" fill-opacity="1">
        <g transform="translate(198.997208, 223.548831)">
            <g>
                <path d="M 2.765625 0 L 2.765625 -13.09375 L 0.328125 -13.09375 L 0.328125 -15.421875 L 7.65625 -15.421875 L 7.65625 -13.09375 L 5.21875 -13.09375 L 5.21875 0 Z M 2.765625 0 " />
            </g>
        </g>
    </g>
    <g fill="rgb(100%, 100%, 100%)" fill-opacity="1">
        <g transform="translate(212.00157, 223.548831)">
            <g>
                <path d="M 0.890625 0 L 0.890625 -13.3125 C 0.890625 -13.90625 1.082031 -14.40625 1.46875 -14.8125 C 1.863281 -15.21875 2.335938 -15.421875 2.890625 -15.421875 L 5.65625 -15.421875 C 6.207031 -15.421875 6.675781 -15.21875 7.0625 -14.8125 C 7.457031 -14.40625 7.65625 -13.90625 7.65625 -13.3125 L 7.65625 0 L 5.21875 0 L 5.21875 -6.546875 L 3.328125 -5.546875 L 3.328125 0 Z M 3.328125 -8.28125 L 5.21875 -9.28125 L 5.21875 -13.09375 L 3.328125 -13.09375 Z M 3.328125 -8.28125 " />
            </g>
        </g>
    </g>
    <g fill="rgb(100%, 100%, 100%)" fill-opacity="1">
        <g transform="translate(225.560626, 223.548831)">
            <g>
                <path d="M 0.890625 0 L 0.890625 -15.421875 L 3.328125 -15.421875 L 3.328125 0 Z M 0.890625 0 " />
            </g>
        </g>
    </g>
    <g fill="rgb(100%, 100%, 100%)" fill-opacity="1">
        <g transform="translate(234.793064, 223.548831)">
            <g>
                <path d="M 3.328125 0 L 0.890625 0 L 0.890625 -15.421875 L 3.328125 -15.421875 L 3.328125 -14.28125 C 3.421875 -14.476562 3.539062 -14.660156 3.6875 -14.828125 C 4.082031 -15.222656 4.554688 -15.421875 5.109375 -15.421875 L 5.65625 -15.421875 C 6.207031 -15.421875 6.675781 -15.21875 7.0625 -14.8125 C 7.457031 -14.40625 7.65625 -13.90625 7.65625 -13.3125 L 7.65625 0 L 5.21875 0 L 5.21875 -13.09375 L 3.328125 -13.09375 Z M 3.328125 0 " />
            </g>
        </g>
    </g>
    <g fill="rgb(100%, 100%, 100%)" fill-opacity="1">
        <g transform="translate(248.35212, 223.548831)">
            <g>
                <path d="M 6.4375 -14.28125 C 6.519531 -14.476562 6.644531 -14.660156 6.8125 -14.828125 C 7.195312 -15.222656 7.660156 -15.421875 8.203125 -15.421875 L 9.984375 -15.421875 C 10.535156 -15.421875 11.003906 -15.210938 11.390625 -14.796875 C 11.785156 -14.378906 11.984375 -13.882812 11.984375 -13.3125 L 11.984375 0 L 9.546875 0 L 9.546875 -13.09375 L 7.65625 -13.09375 L 7.65625 0 L 5.21875 0 L 5.21875 -13.09375 L 3.328125 -13.09375 L 3.328125 0 L 0.890625 0 L 0.890625 -13.3125 C 0.890625 -13.90625 1.082031 -14.40625 1.46875 -14.8125 C 1.863281 -15.21875 2.335938 -15.421875 2.890625 -15.421875 L 4.65625 -15.421875 C 5.207031 -15.421875 5.679688 -15.210938 6.078125 -14.796875 C 6.222656 -14.640625 6.34375 -14.46875 6.4375 -14.28125 Z M 6.4375 -14.28125 " />
            </g>
        </g>
    </g>
    <g fill="rgb(100%, 100%, 100%)" fill-opacity="1">
        <g transform="translate(266.237786, 223.548831)">
            <g>
                <path d="M 6.765625 -13.09375 L 3.328125 -13.09375 L 3.328125 -8.9375 L 6.765625 -10.71875 L 6.765625 -7.984375 L 3.328125 -6.21875 L 3.328125 -2.328125 L 6.765625 -2.328125 L 6.765625 0 L 0.890625 0 L 0.890625 -13.3125 C 0.890625 -13.90625 1.082031 -14.40625 1.46875 -14.8125 C 1.863281 -15.21875 2.335938 -15.421875 2.890625 -15.421875 L 6.765625 -15.421875 Z M 6.765625 -13.09375 " />
            </g>
        </g>
    </g>
    <g fill="rgb(100%, 100%, 100%)" fill-opacity="1">
        <g transform="translate(278.687453, 223.548831)">
            <g>
                <path d="M 3.328125 0 L 0.890625 0 L 0.890625 -15.421875 L 3.328125 -15.421875 L 3.328125 -14.28125 C 3.421875 -14.476562 3.539062 -14.660156 3.6875 -14.828125 C 4.082031 -15.222656 4.554688 -15.421875 5.109375 -15.421875 L 5.65625 -15.421875 C 6.207031 -15.421875 6.675781 -15.21875 7.0625 -14.8125 C 7.457031 -14.40625 7.65625 -13.90625 7.65625 -13.3125 L 7.65625 0 L 5.21875 0 L 5.21875 -13.09375 L 3.328125 -13.09375 Z M 3.328125 0 " />
            </g>
        </g>
    </g>
    <g fill="rgb(100%, 100%, 100%)" fill-opacity="1">
        <g transform="translate(292.246509, 223.548831)">
            <g>
                <path d="M 2.765625 0 L 2.765625 -13.09375 L 0.328125 -13.09375 L 0.328125 -15.421875 L 7.65625 -15.421875 L 7.65625 -13.09375 L 5.21875 -13.09375 L 5.21875 0 Z M 2.765625 0 " />
            </g>
        </g>
    </g>
</svg>